# xmcd
#
# Track frame offsets:
#   150
#   15755
#   26675
#   41332
#   58305
#   76635
#   91237
#   104270
#   120590
#   133900
#   145220
#   162870
#   178210
#
# Disc length: 2637 seconds
#
# Revision: 0
# Processed by: cddbd v1.5.2PL0 Copyright (c) Steve Scherf et al.
# Submitted via: uFREEDB ActiveX Control 1.5
#
DISCID=a00a4b0d
DTITLE=Grupo Querência - Novo amanhã
DYEAR=1900
DGENRE=Alternative
TTITLE0=Arrasta-pé
TTITLE1=Tem que ter vaneira
TTITLE2=Pra sacudir, pra balançar
TTITLE3=Batendo água
TTITLE4=Gaúcho amigo
TTITLE5=Recaída
TTITLE6=Vem que tem
TTITLE7=Fandango bom
TTITLE8=Foi na venda comprar milho
TTITLE9=Baile gaúcho
TTITLE10=Sina estradeira
TTITLE11=Então tasquemo
TTITLE12=Novo amanhã
EXTD=
EXTT0=
EXTT1=
EXTT2=
EXTT3=
EXTT4=
EXTT5=
EXTT6=
EXTT7=
EXTT8=
EXTT9=
EXTT10=
EXTT11=
EXTT12=
PLAYORDER=
